# xmcd CD database file
#
# Track frame offsets:
#	150
#	12582
#	24482
#	36500
#	47837
#	57992
#	70835
#	81467
#	91910
#	105440
#	117100
#	128172
#	142137
#	153357
#	165345
#	176080
#	187520
#	197915
#
# Disc length: 2789 seconds
#
# Revision: 0
# Processed by: cddbd v1.5.2PL0 Copyright (c) Steve Scherf et al.
# Submitted via: CDex 1.79
#
DISCID=f20ae312
DTITLE=Paula Watson - The Chronological Paula Watson 1948 - 1953
DYEAR=2004
DGENRE=Blues
TTITLE0=Pretty Papa Blues (Pretty Mama Blues)
TTITLE1=A Little Bird Told Me
TTITLE2=Paula's Nightmare
TTITLE3=Stick By Me Baby
TTITLE4=You Broke Your Promise
TTITLE5=Hidin' In The Sticks
TTITLE6=I've Got The Sweetest Man
TTITLE7=Of All Things
TTITLE8=I Want A Short, Squat, Big Fat Papa
TTITLE9=I'll Be Glad, Glad, Glad
TTITLE10=A Heart Of Stone
TTITLE11=Don't Worry Me No More
TTITLE12=Stop That Knockin' At My Heart
TTITLE13=I'm Gonna Paper My Walls With Your Love Letters
TTITLE14=Put A Little Bug In My Ear
TTITLE15=I Love To Ride
TTITLE16=Chick-Chick-Chick-A-Dee
TTITLE17=Tennessee Walk
EXTD=YEAR: 2004
EXTT0=
EXTT1=
EXTT2=
EXTT3=
EXTT4=
EXTT5=
EXTT6=
EXTT7=
EXTT8=
EXTT9=
EXTT10=
EXTT11=
EXTT12=
EXTT13=
EXTT14=
EXTT15=
EXTT16=
EXTT17=
PLAYORDER=
